<svg xmlns="http://www.w3.org/2000/svg" width="20.571" height="18" viewBox="0 0 20.571 18"><defs><style>.a{fill:#00afef;}</style></defs><path class="a" d="M9.643,4.821h2.571a.643.643,0,0,0,.643-.643V2.893a.643.643,0,0,0-.643-.643H9.643A.643.643,0,0,0,9,2.893V4.179A.643.643,0,0,0,9.643,4.821Zm0,5.143h5.143a.643.643,0,0,0,.643-.643V8.036a.643.643,0,0,0-.643-.643H9.643A.643.643,0,0,0,9,8.036V9.321A.643.643,0,0,0,9.643,9.964Zm10.286,7.714H9.643A.643.643,0,0,0,9,18.321v1.286a.643.643,0,0,0,.643.643H19.929a.643.643,0,0,0,.643-.643V18.321A.643.643,0,0,0,19.929,17.679ZM9.643,15.107h7.714A.643.643,0,0,0,18,14.464V13.179a.643.643,0,0,0-.643-.643H9.643A.643.643,0,0,0,9,13.179v1.286A.643.643,0,0,0,9.643,15.107Zm-2.571,0H5.143V2.893A.643.643,0,0,0,4.5,2.25H3.214a.643.643,0,0,0-.643.643V15.107H.643a.643.643,0,0,0-.454,1.1L3.4,20.062a.643.643,0,0,0,.909,0L7.527,16.2A.644.644,0,0,0,7.071,15.107Z" transform="translate(0 -2.25)"/></svg>