<svg id="right" xmlns="http://www.w3.org/2000/svg" width="18" height="18" viewBox="0 0 18 18">
  <g id="Group_9754" data-name="Group 9754" transform="translate(0)">
    <g id="Group_9753" data-name="Group 9753">
      <path id="Path_14501" data-name="Path 14501" d="M15.364,2.636A9,9,0,0,0,2.636,15.364,9,9,0,1,0,15.364,2.636ZM9,16.945A7.945,7.945,0,1,1,16.945,9,7.954,7.954,0,0,1,9,16.945Z" transform="translate(0)" fill="#6da523"/>
    </g>
  </g>
  <g id="Group_9756" data-name="Group 9756" transform="translate(4.546 5.958)">
    <g id="Group_9755" data-name="Group 9755">
      <path id="Path_14502" data-name="Path 14502" d="M138.055,169.622a.527.527,0,0,0-.746,0l-4.657,4.657-2.451-2.451a.527.527,0,1,0-.746.746l2.824,2.824a.527.527,0,0,0,.746,0l5.03-5.03A.527.527,0,0,0,138.055,169.622Z" transform="translate(-129.301 -169.467)" fill="#6da523"/>
    </g>
  </g>
</svg>
