<svg xmlns="http://www.w3.org/2000/svg" xmlns:xlink="http://www.w3.org/1999/xlink" width="240" height="60" viewBox="0 0 240 60"><defs><style>.a,.e{fill:#fff;}.a{stroke:#00afef;}.b,.c,.h{fill:#00afef;}.b{font-size:22px;font-family:Roboto-Medium, Roboto;font-weight:500;letter-spacing:0.07em;}.d{fill:url(#a);}.e{font-size:18px;font-family:Roboto-Bold, Roboto;font-weight:700;}.f,.h{stroke:none;}.g{fill:none;}</style><linearGradient id="a" x1="1" y1="0.5" x2="-0.168" y2="0.5" gradientUnits="objectBoundingBox"><stop offset="0" stop-color="#00afef"/><stop offset="1" stop-color="#fff"/></linearGradient></defs><g class="a"><rect class="f" width="240" height="60" rx="5"/><rect class="g" x="0.5" y="0.5" width="239" height="59" rx="4.5"/></g><text class="b" transform="translate(20 39)"><tspan x="0" y="0">MASTERCARD100</tspan></text><g class="c"><path class="f" d="M 221.1068572998047 59.5 L 5.000004291534424 59.5 C 2.518698692321777 59.5 0.5000043511390686 57.48130416870117 0.5000043511390686 55 L 0.5000043511390686 5 C 0.5000043511390686 2.518694400787354 2.518698692321777 0.5 5.000004291534424 0.5 L 189.6997375488281 0.5 L 221.1068572998047 59.5 Z"/><path class="h" d="M 5 1 C 2.794387817382813 1 1 2.794387817382813 1 5 L 1 55 C 1 57.20561218261719 2.794387817382813 59 5 59 L 220.2742767333984 59 L 189.3994750976563 1 L 5 1 M 5 0 L 190 0 L 221.939453125 60 L 5 60 C 2.238555908203125 60 0 57.76141738891602 0 55 L 0 5 C 0 2.238582611083984 2.238555908203125 0 5 0 Z"/></g><path class="d" d="M-10703.24-501.76l30.4,58.92-44.64-17.578s-5.92-1.465-3.2-8.138,13.439-33.2,13.439-33.2Z" transform="translate(10895 502)"/><text class="e" transform="translate(40 37)"><tspan x="0" y="0">COPY CODE</tspan></text></svg>