<svg xmlns="http://www.w3.org/2000/svg" width="189.197" height="41.808" viewBox="0 0 189.197 41.808">
  <path id="Path_14503" data-name="Path 14503" d="M260.43,179.221a6.621,6.621,0,0,1,6.235-6.592.965.965,0,0,1-.763-.892c0-.445.681-.815.681-.9v-1.507c0-.085-.735-.455-.735-.9s.735-.815.735-.9v-1.507c0-.085-.735-.455-.735-.9s.735-.815.735-.9v-1.507c0-.085-.735-.455-.735-.9s.735-.815.735-.9v-1.507a4.466,4.466,0,0,0-.613-.64H79a.617.617,0,0,1-.613.64v1.507c.659.085.735.455.735.9s-.077.815-.735.9v1.507c.659.085.735.455.735.9s-.077.815-.735.9v1.507c.659.085.735.455.735.9s-.077.815-.735.9v1.507c.659.085.674.455.674.9a.943.943,0,0,1-.689.876,6.609,6.609,0,0,1,.068,13.216c-.035.012-.053.025-.053.032v1.507c.659.085.735.456.735.9s-.077.815-.735.9v1.506c.659.085.735.456.735.9s-.077.815-.735.9v1.506c.659.085.735.456.735.9s-.077.815-.735.9v1.507c.659.085.735.455.735.9s-.077.814-.735.9v.493h188.2v-.493c0-.085-.735-.456-.735-.9s.735-.815.735-.9v-1.507c0-.085-.735-.456-.735-.9s.735-.814.735-.9v-1.506c0-.085-.735-.456-.735-.9s.735-.814.735-.9v-1.506c0-.085-.735-.456-.735-.9s.735-.814.735-.9V185.86c0-.012-.059-.03-.115-.054A6.583,6.583,0,0,1,260.43,179.221Z" transform="translate(-77.887 -158.271)" fill="#e0f4fd" stroke="#7bd0f5" stroke-width="1"/>
</svg>
