<svg xmlns="http://www.w3.org/2000/svg" xmlns:xlink="http://www.w3.org/1999/xlink" width="375" height="182" viewBox="0 0 375 182"><defs><style>.a,.ap{fill:#c3c5fa;}.b{fill:#d4d3fb;}.c{fill:#cae49f;}.d{fill:#d3b25a;}.e{fill:#ecc649;}.f{fill:none;}.g{fill:#e8aaad;}.h{fill:#423392;}.i{fill:#ff74b2;}.j{fill:#302564;}.k{fill:#d29271;}.l{fill:#dc4267;}.bx,.m{opacity:0.2;}.m{fill:url(#a);}.n,.o{opacity:0.6;}.n{fill:url(#b);}.o{fill:url(#c);}.af,.p{fill:#92c935;}.p,.q{opacity:0.22;}.q{fill:url(#d);}.r{clip-path:url(#e);}.ai,.as,.s{fill:#fff;}.t{clip-path:url(#f);}.u{fill:#b2aecc;opacity:0.18;}.aj,.ao,.ap,.ar,.at,.bd,.be,.bj,.bo,.br,.bx,.u{mix-blend-mode:multiply;isolation:isolate;}.v{clip-path:url(#g);}.w{fill:#f9f2f4;}.x{clip-path:url(#h);}.y{clip-path:url(#i);}.z{clip-path:url(#j);}.aa{fill:#2e2562;}.ab{fill:#e7e4fc;}.ac,.bz{fill:#00afef;}.ad{fill:#dd5366;}.ae{fill:#0081ca;}.ag{fill:#5758db;}.ah{clip-path:url(#k);}.ai{opacity:0.53;}.aj{opacity:0.93;}.ak{fill:#e0f4fd;}.al{clip-path:url(#l);}.am{fill:url(#m);}.an{fill:url(#n);}.ap,.at{opacity:0.34;}.aq{fill:#ffd255;}.ar,.au,.av{fill:#5d5d5d;}.ar{opacity:0.12;}.as,.av{opacity:0.17;}.aw{opacity:0.14;}.ax{clip-path:url(#o);}.ay{clip-path:url(#p);}.az{clip-path:url(#q);}.ba{fill:#6971ba;}.bb{clip-path:url(#r);}.bc{clip-path:url(#s);}.bd,.bf{fill:#5283bc;}.bd{opacity:0.55;}.be{opacity:0.16;}.bg{fill:#405dbb;}.bh{fill:#d96985;}.bi{clip-path:url(#t);}.bj{fill:#866e4f;opacity:0.29;}.bk{fill:#6c543b;}.bl{fill:#354f5f;}.bm{fill:#ecf1f1;}.bn{clip-path:url(#u);}.bo{fill:#99374f;opacity:0.23;}.bp{fill:#1f3054;}.bq{clip-path:url(#v);}.br{fill:#44627d;opacity:0.21;}.bs{fill:#1b2b41;}.bt{fill:#e9be84;}.bu{fill:#c74b65;}.bv{clip-path:url(#w);}.bw{clip-path:url(#x);}.bx{fill:#5b2a36;}.by{clip-path:url(#y);}.bz{font-size:16px;font-family:CoconOT-Regular, CoconOT;}.ca,.cb{fill:#5c5c5c;}.ca{font-size:10px;font-family:CoconOT-Light, CoconOT;font-weight:300;}</style><linearGradient id="a" x1="0.749" y1="0.466" x2="0.139" y2="0.468" gradientUnits="objectBoundingBox"><stop offset="0" stop-color="#92c935"/><stop offset="1" stop-color="#00afef"/></linearGradient><linearGradient id="b" x1="0.07" y1="0.175" x2="1.07" y2="0.175" gradientUnits="objectBoundingBox"><stop offset="0" stop-color="#f4f2f7"/><stop offset="0.002" stop-color="#f4f2f7"/><stop offset="1" stop-color="#00afef"/></linearGradient><linearGradient id="c" x1="-0.696" y1="-0.841" x2="0.304" y2="-0.841" xlink:href="#b"/><linearGradient id="d" x1="-20.251" y1="-10.543" x2="-19.251" y2="-10.543" gradientUnits="objectBoundingBox"><stop offset="0.002" stop-color="#f4f2f7"/><stop offset="1" stop-color="#b6a8fb"/></linearGradient><clipPath id="e"><path class="a" d="M291.9,161.671a79.144,79.144,0,0,1,18.061-38.647c15.6-17.852,19.964-20.764,20.075-23.317,0,0,8.094,40.313-30.527,64.393Z" transform="translate(-291.899 -99.707)"/></clipPath><clipPath id="f"><path class="a" d="M132.735,182.106A76.4,76.4,0,0,0,115.3,144.8c-15.06-17.233-19.271-20.044-19.379-22.508,0,0-7.813,38.914,29.468,62.158Z" transform="translate(-95.241 -122.292)"/></clipPath><clipPath id="g"><path class="b" d="M162.317,177.49s-9.327,1.709-15.23-7.744-2.728-20.785-2.728-20.785,11.385,1.857,17.285,11.775S162.317,177.49,162.317,177.49Z" transform="translate(-143.507 -148.961)"/></clipPath><clipPath id="h"><path class="b" d="M108.835,300.465S96.364,311,79.46,301.926,57.6,273.211,57.6,273.211s18.595-6.965,35.893,2.8S108.835,300.465,108.835,300.465Z" transform="translate(-57.604 -270.805)"/></clipPath><clipPath id="i"><path class="b" d="M326.5,257.512s-6.821-9.874,1.016-21.6,22.566-13.956,22.566-13.956,3.777,14.1-4.6,26.068S326.5,257.512,326.5,257.512Z" transform="translate(-323.749 -221.956)"/></clipPath><clipPath id="j"><path class="c" d="M423.265,187.364a5.313,5.313,0,0,1-5.238-2.662,9.849,9.849,0,0,1-.939-7.148,9.251,9.251,0,0,1,5.945,4.049C425.062,185.013,423.265,187.364,423.265,187.364Z" transform="translate(-416.795 -177.554)"/></clipPath><clipPath id="k"><path class="d" d="M375.645,295.178l-2.09,7.955a2.318,2.318,0,0,0,.989,2.54l6.921,4.446a2.46,2.46,0,0,1-1.189,4.525l-8.212.471a2.319,2.319,0,0,0-2.109,1.726l-2.09,7.955a2.459,2.459,0,0,1-4.671.268l-2.986-7.664a2.318,2.318,0,0,0-2.293-1.473l-8.212.471a2.46,2.46,0,0,1-1.7-4.359l6.367-5.208a2.318,2.318,0,0,0,.692-2.636l-2.986-7.665a2.459,2.459,0,0,1,3.621-2.962l6.921,4.446a2.318,2.318,0,0,0,2.721-.156l6.367-5.208A2.46,2.46,0,0,1,375.645,295.178Z" transform="translate(-347.098 -292.083)"/></clipPath><clipPath id="l"><path class="e" d="M332.183,382.914a142.021,142.021,0,0,0-29.792.009,2.875,2.875,0,0,0-.323.042h0a2.935,2.935,0,0,0-2.383,2.873h0a2.934,2.934,0,0,0,2.925,2.925h29.572a2.933,2.933,0,0,0,2.925-2.925h0A2.933,2.933,0,0,0,332.183,382.914Z" transform="translate(-299.686 -382.157)"/></clipPath><linearGradient id="m" y1="0.5" x2="1" y2="0.5" gradientUnits="objectBoundingBox"><stop offset="0" stop-color="#d3b25a" stop-opacity="0"/><stop offset="0.062" stop-color="#d3b25a" stop-opacity="0.129"/><stop offset="0.186" stop-color="#d3b25a" stop-opacity="0.357"/><stop offset="0.314" stop-color="#d3b25a" stop-opacity="0.557"/><stop offset="0.443" stop-color="#d3b25a" stop-opacity="0.718"/><stop offset="0.574" stop-color="#d3b25a" stop-opacity="0.839"/><stop offset="0.708" stop-color="#d3b25a" stop-opacity="0.929"/><stop offset="0.847" stop-color="#d3b25a" stop-opacity="0.984"/><stop offset="0.997" stop-color="#d3b25a"/></linearGradient><linearGradient id="n" x1="1" y1="0.5" x2="0" y2="0.5" xlink:href="#m"/><clipPath id="o"><path class="f" d="M226.462,135.668h-50.9V208h52.289V135.668Z" transform="translate(-175.56 -135.668)"/></clipPath><clipPath id="p"><path class="d" d="M102.507,195.588l-.608,8.2a2.318,2.318,0,0,0,1.435,2.317l7.613,3.114a2.459,2.459,0,0,1-.346,4.665l-7.989,1.956a2.319,2.319,0,0,0-1.761,2.08l-.609,8.2a2.459,2.459,0,0,1-4.544,1.112l-4.329-6.994a2.319,2.319,0,0,0-2.523-1.032l-7.989,1.956a2.46,2.46,0,0,1-2.462-3.978l5.314-6.279a2.318,2.318,0,0,0,.2-2.718L79.58,201.2A2.46,2.46,0,0,1,82.6,197.63l7.613,3.114a2.319,2.319,0,0,0,2.647-.648l5.314-6.279A2.459,2.459,0,0,1,102.507,195.588Z" transform="translate(-77.802 -192.94)"/></clipPath><clipPath id="q"><path class="g" d="M109.436,423.362l-2.448,3.991.409,3.177s2.248.488,1.431.977-2.453.489-2.657,0-1.84-5.131-1.431-5.376,1.431-.733,1.431-.733l1.431-3.665Z" transform="translate(-104.673 -421.733)"/></clipPath><clipPath id="r"><path class="g" d="M154.156,419.469v7.087s4.7,1.955,4.293,2.444c0,0-5.928,0-5.928-.489s.2-2.2.2-2.2l-.962-6.451Z" transform="translate(-151.763 -419.469)"/></clipPath><clipPath id="s"><path class="h" d="M123.487,323.653l-7.359,3.176s-2.044,7.575-1.84,9.286.818,10.752.409,11.485-2.248,8.553-2.248,8.553,2.862,1.222,2.657,1.222,5.315-7.576,5.519-10.508.409-4.4.409-4.4,3.475,8.064,4.293,13.44l2.862-.489s-.2-16.861-1.431-22.237A48.362,48.362,0,0,0,123.487,323.653Z" transform="translate(-112.449 -323.653)"/></clipPath><clipPath id="t"><path class="g" d="M113.094,263.171a8.2,8.2,0,0,1-1.5-.971c-.342-.37-1.53-1.842-1.317-2.724,0,0,1.526.578,1.984-.634.6-1.579-2.284-5.256-2.989-5.462s-2.269-1.159-3.741.029.642,6.259,2.235,6.5c0,0,1.71,2.824,1.119,3.738,0,0,2.432,1.034,3.349.358S113.094,263.171,113.094,263.171Z" transform="translate(-105.039 -252.824)"/></clipPath><clipPath id="u"><path class="i" d="M115.6,296.52s1.575-3.465,1.89-4.095-5.669-8.189-5.669-9.134.945-4.724,4.095-4.409,7.874,2.52,7.244,4.409-.63,6.929,0,10.079c.393,1.965-1.666,3.44-3.271,4.271a2.966,2.966,0,0,1-3.144-.263Z" transform="translate(-111.821 -278.864)"/></clipPath><clipPath id="v"><path class="j" d="M402.888,357.363a19.906,19.906,0,0,1-2.093-5.384c-.917-3.972-4.583-7.944-4.583-7.944-.306-3.667-2.444-14.667-2.444-14.973,0,0-2.75-5.195-4.583,1.222s3.667,12.222,3.667,14.056,8.861,14.056,8.861,14.056l-.006.015A1.979,1.979,0,0,0,402.888,357.363Z" transform="translate(-388.81 -327.077)"/></clipPath><clipPath id="w"><path class="k" d="M400.221,254.67a10.112,10.112,0,0,0,1.842-1.2c.42-.455,1.883-2.268,1.621-3.354,0,0-1.879.712-2.443-.78-.735-1.944,2.813-6.471,3.68-6.725s2.794-1.427,4.606.036-.79,7.707-2.752,8c0,0-2.1,3.477-1.377,4.6,0,0-2.994,1.273-4.124.441S400.221,254.67,400.221,254.67Z" transform="translate(-400.22 -241.93)"/></clipPath><clipPath id="x"><path class="l" d="M384.355,291.117c2.379.376,4.032.578,4.507-.876.3-.931.4-3.386,2.378-5.383,1.422-1.435,4.122-5.337,2.713-7.693s-4.431-1.139-5.088-1.113.587-1.778.587-1.778h0a9.193,9.193,0,0,0-6.394,4.64c-2.005,3.4-2.651,10.919-2.082,11.828Z" transform="translate(-380.777 -274.274)"/></clipPath><clipPath id="y"><path class="d" d="M312.683,213.983l4.9,6.605a2.318,2.318,0,0,0,2.6.816l7.8-2.62a2.459,2.459,0,0,1,2.788,3.757l-4.767,6.7a2.318,2.318,0,0,0,.027,2.726l4.9,6.605a2.46,2.46,0,0,1-2.712,3.812l-7.848-2.463a2.318,2.318,0,0,0-2.583.868l-4.768,6.7a2.459,2.459,0,0,1-4.464-1.4l-.083-8.225a2.318,2.318,0,0,0-1.624-2.189L299,233.217a2.459,2.459,0,0,1-.047-4.678l7.8-2.62a2.319,2.319,0,0,0,1.58-2.221l-.083-8.225A2.459,2.459,0,0,1,312.683,213.983Z" transform="translate(-297.278 -212.984)"/></clipPath></defs><g transform="translate(0 -119)"><rect class="m" width="375" height="182" transform="translate(0 119)"/><g transform="translate(-425.791 -107.046)"><g transform="translate(644.246 247.097)"><g transform="translate(0 0)"><circle class="n" cx="40.275" cy="40.275" r="40.275" transform="translate(4.417 15.858)"/><circle class="o" cx="26.654" cy="26.654" r="26.654" transform="translate(80.162 16.787) rotate(-18.355)"/><circle class="p" cx="4.863" cy="4.863" r="4.863" transform="matrix(0.184, -0.983, 0.983, 0.184, 68.278, 13.637)"/><path class="p" d="M403.211,207.62a4.863,4.863,0,1,1-6.843-.69A4.863,4.863,0,0,1,403.211,207.62Z" transform="translate(-274.287 -145.085)"/><path class="q" d="M30.207,263.453a3.962,3.962,0,1,1-5.575-.562A3.962,3.962,0,0,1,30.207,263.453Z" transform="translate(-23.177 -183.059)"/></g><g transform="translate(87.037 26.374)"><path class="c" d="M291.9,161.671a79.144,79.144,0,0,1,18.061-38.647c15.6-17.852,19.964-20.764,20.075-23.317,0,0,8.094,40.313-30.527,64.393Z" transform="translate(-291.899 -99.707)"/><g class="r"><g transform="translate(63.862 20.394)"><path class="s" d="M489.134,165.968a5.3,5.3,0,0,0,1.411-3.089.245.245,0,0,1,.486.066,5.734,5.734,0,0,1-1.506,3.321c-.213.23-.605-.066-.391-.3Z" transform="translate(-489.072 -162.673)"/></g><g transform="translate(0.484 -13.406)"><path class="s" d="M293.834,137.254l.066.057a.061.061,0,0,1,.024.057.27.27,0,0,1-.485.137c-.16-.237.131-.536.261-.686.535-.62,1.175-1.171,1.74-1.767a80.383,80.383,0,0,0,6.143-7.379,192.446,192.446,0,0,0,10.556-16.212q5.035-8.431,9.534-17.166c2.794-5.424,5.691-10.928,7.525-16.768a47.76,47.76,0,0,0,1.82-9.967,44,44,0,0,1,1.515-9.2c.024-.075.137-.028.114.047-1.643,5.213-1.277,10.775-2.491,16.075-1.248,5.45-3.7,10.53-6.17,15.513A300.721,300.721,0,0,1,306.023,121.5c-1.846,2.812-3.771,5.575-5.847,8.224q-1.529,1.951-3.173,3.808-.875.983-1.787,1.934-.43.447-.868.886c-.208.208-.942.7-.59,1-.06-.051.015-.149.074-.1Z" transform="translate(-293.392 -58.318)"/></g><g transform="translate(24.408 23.738)"><path class="s" d="M367.307,181.521a50.174,50.174,0,0,0,18-8.512.062.062,0,0,1,.075.1,50.337,50.337,0,0,1-18.055,8.536c-.076.019-.091-.1-.015-.122Z" transform="translate(-367.257 -172.996)"/></g><g transform="translate(30.184 21.047)"><path class="s" d="M385.129,170.245a26.091,26.091,0,0,0,9.564-5.542c.058-.053.132.045.074.1a26.169,26.169,0,0,1-9.592,5.558c-.075.024-.121-.09-.046-.114Z" transform="translate(-385.091 -164.688)"/></g><g transform="translate(25.858 44.156)"><path class="s" d="M378.631,236.159a30.388,30.388,0,0,0-6.812,1.287c-.075.023-.121-.09-.046-.114a30.526,30.526,0,0,1,6.843-1.3c.078-.006.094.116.015.122Z" transform="translate(-371.735 -236.037)"/></g><g transform="translate(21.753 12.955)"><path class="s" d="M359.331,152.3c-.705-4.205.1-8.42.924-12.546.016-.077.137-.061.122.017-.822,4.116-1.628,8.319-.924,12.514.013.078-.109.093-.122.015Z" transform="translate(-359.061 -139.706)"/></g><g transform="translate(10.192 27.544)"><path class="s" d="M325.2,201.34a30.478,30.478,0,0,1-1.211-16.541c.016-.077.138-.061.122.017a30.353,30.353,0,0,0,1.2,16.479c.027.074-.087.12-.114.046Z" transform="translate(-323.365 -184.748)"/></g><g transform="translate(2.354 45.201)"><path class="s" d="M300.958,247.9a14.421,14.421,0,0,1-1.7-8.586.061.061,0,0,1,.122.017,14.306,14.306,0,0,0,1.691,8.524c.038.069-.076.114-.114.046Z" transform="translate(-299.168 -239.264)"/></g><g transform="translate(25.813 7.034)"><path class="s" d="M373.53,131.771c-1.874-3.094-1.934-6.769-1.935-10.28,0-.078.122-.094.122-.015,0,3.483.051,7.149,1.911,10.221.04.067-.057.142-.1.074Z" transform="translate(-371.595 -121.424)"/></g></g></g><g transform="translate(23.341 33.689)"><path class="c" d="M132.735,182.106A76.4,76.4,0,0,0,115.3,144.8c-15.06-17.233-19.271-20.044-19.379-22.508,0,0-7.813,38.914,29.468,62.158Z" transform="translate(-95.241 -122.292)"/><g class="t"><g transform="translate(-26.045 19.687)"><path class="s" d="M16.661,186.254a5.11,5.11,0,0,1-1.362-2.982.237.237,0,0,0-.47.063,5.537,5.537,0,0,0,1.454,3.206c.206.222.584-.063.377-.287Z" transform="translate(-14.828 -183.074)"/></g><g transform="translate(-0.868 -12.94)"><path class="s" d="M130.031,158.536l-.064.055a.059.059,0,0,0-.023.055.261.261,0,0,0,.468.132c.154-.228-.127-.517-.252-.662-.517-.6-1.135-1.13-1.68-1.706a77.561,77.561,0,0,1-5.93-7.123,185.736,185.736,0,0,1-10.189-15.649q-4.86-8.138-9.2-16.571c-2.7-5.236-5.494-10.549-7.263-16.186a46.091,46.091,0,0,1-1.757-9.621,42.436,42.436,0,0,0-1.463-8.884c-.023-.073-.132-.027-.109.045,1.586,5.032,1.233,10.4,2.4,15.517,1.205,5.261,3.572,10.165,5.956,14.975a290.312,290.312,0,0,0,17.339,30.413c1.782,2.715,3.641,5.382,5.644,7.938q1.476,1.883,3.063,3.676.844.949,1.725,1.866.415.432.838.855c.2.2.909.676.569.969.057-.05-.014-.144-.072-.094Z" transform="translate(-92.561 -82.339)"/></g><g transform="translate(-3.581 22.914)"><path class="s" d="M101.65,201.267a48.435,48.435,0,0,1-17.372-8.216.059.059,0,0,0-.072.094,48.581,48.581,0,0,0,17.429,8.24c.074.018.088-.1.014-.118Z" transform="translate(-84.184 -193.038)"/></g><g transform="translate(-1.003 20.316)"><path class="s" d="M101.468,190.382a25.187,25.187,0,0,1-9.232-5.35c-.056-.051-.128.043-.072.094a25.255,25.255,0,0,0,9.259,5.365c.072.023.117-.086.044-.11Z" transform="translate(-92.144 -185.018)"/></g><g transform="translate(5.826 42.624)"><path class="s" d="M113.278,254.009a29.341,29.341,0,0,1,6.576,1.243c.072.022.117-.087.044-.11a29.487,29.487,0,0,0-6.606-1.251c-.076-.005-.091.112-.015.118Z" transform="translate(-113.228 -253.891)"/></g><g transform="translate(15.225 12.506)"><path class="s" d="M143.257,173.062c.681-4.059-.1-8.128-.892-12.111-.015-.074-.132-.059-.118.016.793,3.973,1.571,8.031.892,12.08-.013.075.1.09.118.015Z" transform="translate(-142.246 -160.903)"/></g><g transform="translate(25.772 26.588)"><path class="s" d="M174.926,220.4a29.422,29.422,0,0,0,1.169-15.967c-.015-.074-.133-.059-.117.016a29.3,29.3,0,0,1-1.162,15.908c-.026.071.084.116.11.044Z" transform="translate(-174.812 -204.382)"/></g><g transform="translate(33.377 43.633)"><path class="s" d="M198.408,265.345a13.92,13.92,0,0,0,1.64-8.289.059.059,0,0,0-.117.016A13.811,13.811,0,0,1,198.3,265.3c-.037.067.074.11.11.044Z" transform="translate(-198.291 -257.007)"/></g><g transform="translate(10.606 6.79)"><path class="s" d="M128.09,153.243c1.809-2.987,1.867-6.534,1.868-9.923,0-.075-.118-.091-.118-.014,0,3.362-.049,6.9-1.845,9.866-.039.064.055.137.094.072Z" transform="translate(-127.986 -143.255)"/></g></g></g><ellipse class="u" cx="62.26" cy="2.577" rx="62.26" ry="2.577" transform="translate(18.258 117.479)"/><ellipse class="u" cx="14.464" cy="1.662" rx="14.464" ry="1.662" transform="translate(9.22 129.704)"/><path class="u" d="M116.484,444.925c0,1.01-8.039,1.829-17.955,1.829s-17.955-.819-17.955-1.829,8.039-1.829,17.955-1.829S116.484,443.915,116.484,444.925Z" transform="translate(-61.984 -305.501)"/><path class="u" d="M383.394,428.5c0,1.01-8.039,1.829-17.955,1.829s-17.955-.818-17.955-1.829,8.039-1.829,17.955-1.829S383.394,427.49,383.394,428.5Z" transform="translate(-242.444 -294.396)"/><g transform="translate(38.974 42.327)"><path class="b" d="M162.317,177.49s-9.327,1.709-15.23-7.744-2.728-20.785-2.728-20.785,11.385,1.857,17.285,11.775S162.317,177.49,162.317,177.49Z" transform="translate(-143.507 -148.961)"/><g class="v"><g transform="translate(-1.583 6.904)"><path class="w" d="M138.829,170.314l-.123-.036a.068.068,0,1,0-.038.13l.123.036a.068.068,0,0,0,.038-.131Z" transform="translate(-138.619 -170.276)"/></g><g transform="translate(1.699 1.888)"><path class="w" d="M148.767,154.876a64.768,64.768,0,0,1,5.482,6.817c1.667,2.369,3.2,4.83,4.659,7.333,1.467,2.52,2.856,5.083,4.228,7.655s2.737,5.168,4.141,7.732,2.847,5.092,4.4,7.563q.285.456.576.908c.035.055.125.006.089-.049-1.582-2.466-3.054-5-4.473-7.563s-2.78-5.144-4.153-7.724-2.764-5.171-4.222-7.714c-1.449-2.527-2.969-5.015-4.617-7.417a67.274,67.274,0,0,0-5.311-6.818q-.358-.4-.724-.793c-.044-.048-.118.023-.073.071Z" transform="translate(-148.753 -154.789)"/></g><g transform="translate(7.062 2.96)"><path class="w" d="M165.409,163.709l1.324-5.545c.015-.063-.083-.092-.1-.029l-1.324,5.546c-.015.063.082.092.1.028Z" transform="translate(-165.31 -158.099)"/></g><g transform="translate(10.585 5.734)"><path class="w" d="M176.275,174.909a10.925,10.925,0,0,0,3.126-6.147,10.6,10.6,0,0,0,.106-2.046c0-.065-.1-.068-.1,0a10.827,10.827,0,0,1-1.91,6.594,10.505,10.505,0,0,1-1.291,1.529c-.047.046.024.119.071.073Z" transform="translate(-176.189 -166.665)"/></g><g transform="translate(-1.864 10.86)"><path class="w" d="M148.184,182.5c-2.551,1.355-5.572,2.163-8.4,1.183a6.778,6.778,0,0,1-1.964-1.068c-.052-.04-.1.047-.052.087,2.278,1.788,5.381,1.825,8.03.946a15.839,15.839,0,0,0,2.431-1.058.051.051,0,0,0-.049-.089Z" transform="translate(-137.75 -182.489)"/></g><g transform="translate(-1.518 17.975)"><path class="w" d="M153.118,204.46a26.126,26.126,0,0,1-14.235.438c-.063-.016-.092.082-.028.1a26.232,26.232,0,0,0,14.287-.436c.062-.019.039-.119-.023-.1Z" transform="translate(-138.818 -204.457)"/></g><g transform="translate(14.973 5.737)"><path class="w" d="M189.823,182.9a35.721,35.721,0,0,0,5.886-5.807,13.193,13.193,0,0,0,2.689-6.561,8.953,8.953,0,0,0-.441-3.818c-.022-.061-.121-.038-.1.024a9.924,9.924,0,0,1-.27,6.776,17.762,17.762,0,0,1-4.428,6.293c-1.088,1.06-2.246,2.043-3.409,3.019-.05.042.021.115.071.073Z" transform="translate(-189.736 -166.674)"/></g></g></g><g transform="translate(11.151 81.791)"><path class="b" d="M108.835,300.465S96.364,311,79.46,301.926,57.6,273.211,57.6,273.211s18.595-6.965,35.893,2.8S108.835,300.465,108.835,300.465Z" transform="translate(-57.604 -270.805)"/><g class="x" transform="translate(0)"><g transform="translate(2.31 14.678)"><path class="w" d="M65.038,316.125l-.214.051a.117.117,0,1,0,.054.227l.214-.051a.117.117,0,0,0-.054-.227Z" transform="translate(-64.735 -316.122)"/></g><g transform="translate(2.913 4.447)"><path class="w" d="M66.66,284.707A111.507,111.507,0,0,1,80.681,290.2c4.517,2.113,8.913,4.476,13.232,6.968,4.347,2.509,8.615,5.15,12.865,7.818s8.509,5.378,12.8,8.007,8.609,5.171,13.038,7.537q.816.436,1.637.863c.1.052.192-.1.092-.149-4.473-2.331-8.84-4.857-13.152-7.472s-8.553-5.305-12.813-7.986-8.552-5.36-12.905-7.912c-4.326-2.535-8.724-4.952-13.241-7.13A115.848,115.848,0,0,0,68.468,285.1q-.877-.292-1.759-.566a.088.088,0,0,0-.049.168Z" transform="translate(-66.599 -284.534)"/></g><g transform="translate(13.814 0.331)"><path class="w" d="M103.2,281.307l-2.766-9.416c-.032-.108-.2-.067-.17.041l2.766,9.416c.032.108.2.067.17-.041Z" transform="translate(-100.255 -271.827)"/></g><g transform="translate(24.276 -0.159)"><path class="w" d="M134.9,285.36a18.809,18.809,0,0,0-.589-11.858,18.261,18.261,0,0,0-1.592-3.147c-.06-.095-.215-.012-.154.083a18.637,18.637,0,0,1,2.787,11.484,18.087,18.087,0,0,1-.621,3.389.088.088,0,0,0,.168.049Z" transform="translate(-132.556 -270.313)"/></g><g transform="translate(5.359 11.997)"><path class="w" d="M89.613,307.885c-2.651,4.207-6.473,8-11.53,8.948a11.662,11.662,0,0,1-3.848.085c-.111-.016-.114.159,0,.175,4.932.722,9.6-1.877,12.8-5.457a27.217,27.217,0,0,0,2.727-3.661.088.088,0,0,0-.149-.091Z" transform="translate(-74.15 -307.844)"/></g><g transform="translate(12.243 19.03)"><path class="w" d="M116.358,329.587a44.981,44.981,0,0,1-20.89,12.831c-.108.03-.068.2.041.17a45.411,45.411,0,0,0,16.979-9.042,44.922,44.922,0,0,0,3.989-3.831c.076-.083-.043-.211-.12-.128Z" transform="translate(-95.405 -329.56)"/></g><g transform="translate(38.158 -8.106)"><path class="w" d="M177.267,276.937a61.5,61.5,0,0,0,3.825-13.709,22.71,22.71,0,0,0-1.6-12.1,15.408,15.408,0,0,0-3.925-5.326c-.085-.073-.213.046-.128.12a17.084,17.084,0,0,1,5.394,10.354,30.571,30.571,0,0,1-1.231,13.189c-.718,2.513-1.607,4.973-2.509,7.426-.039.106.13.154.168.048Z" transform="translate(-175.417 -245.778)"/></g></g></g><g transform="translate(97.352 65.97)"><path class="c" d="M326.5,257.512s-6.821-9.874,1.016-21.6,22.566-13.956,22.566-13.956,3.777,14.1-4.6,26.068S326.5,257.512,326.5,257.512Z" transform="translate(-323.749 -221.956)"/><g class="y"><g transform="translate(16.973 0.806)"><path class="w" d="M376.345,224.68l-.022-.16a.086.086,0,1,0-.17.024l.022.16a.086.086,0,0,0,.17-.024Z" transform="translate(-376.152 -224.446)"/></g><g transform="translate(-7.156 1.98)"><path class="w" d="M333.315,228.11a82.043,82.043,0,0,1-5.016,9.87c-1.868,3.156-3.908,6.205-6.039,9.188-2.145,3-4.381,5.939-6.635,8.86s-4.54,5.845-6.769,8.8-4.4,5.933-6.441,9.006q-.377.566-.748,1.137c-.045.069.058.147.1.077,2.023-3.108,4.182-6.124,6.4-9.094s4.49-5.882,6.754-8.809,4.53-5.878,6.706-8.882c2.162-2.985,4.243-6.033,6.158-9.184A85.148,85.148,0,0,0,332.9,229.4q.275-.621.539-1.247a.064.064,0,0,0-.12-.047Z" transform="translate(-301.656 -228.071)"/></g><g transform="translate(19.655 10.251)"><path class="w" d="M384.5,255.09l7.088-1.356c.081-.016.063-.143-.018-.127l-7.087,1.355c-.081.016-.064.143.018.128Z" transform="translate(-384.433 -253.606)"/></g><g transform="translate(15.27 17.942)"><path class="w" d="M370.935,278.007a13.83,13.83,0,0,0,8.719.411,13.436,13.436,0,0,0,2.416-.942c.074-.037.025-.156-.05-.119a13.7,13.7,0,0,1-8.6,1.224,13.313,13.313,0,0,1-2.436-.695.064.064,0,0,0-.048.12Z" transform="translate(-370.895 -277.351)"/></g><g transform="translate(11.914 2.591)"><path class="w" d="M366.427,241.918c-2.891-2.239-5.394-5.305-5.73-9.073a8.583,8.583,0,0,1,.211-2.822c.02-.08-.108-.095-.128-.015-.879,3.558.692,7.158,3.084,9.758a20.059,20.059,0,0,0,2.485,2.256.064.064,0,0,0,.078-.1Z" transform="translate(-360.533 -229.955)"/></g><g transform="translate(3.756 6.86)"><path class="w" d="M343.382,259.388a33.066,33.066,0,0,1-7.907-16.2c-.015-.082-.142-.064-.128.018a33.386,33.386,0,0,0,5.412,13.068,33.007,33.007,0,0,0,2.521,3.192c.055.062.157-.017.1-.079Z" transform="translate(-335.346 -243.136)"/></g><g transform="translate(8.346 27.687)"><path class="w" d="M349.554,307.564a45.211,45.211,0,0,0,9.761,3.773,16.7,16.7,0,0,0,8.969-.308,11.326,11.326,0,0,0,4.176-2.494c.06-.057-.018-.159-.078-.1a12.56,12.56,0,0,1-7.96,3.212,22.472,22.472,0,0,1-9.564-1.837c-1.789-.7-3.526-1.529-5.256-2.363-.074-.036-.122.084-.048.12Z" transform="translate(-349.516 -307.437)"/></g></g></g><g transform="translate(127.489 51.588)"><path class="c" d="M423.265,187.364a5.313,5.313,0,0,1-5.238-2.662,9.849,9.849,0,0,1-.939-7.148,9.251,9.251,0,0,1,5.945,4.049C425.062,185.013,423.265,187.364,423.265,187.364Z" transform="translate(-416.795 -177.554)"/><g class="z"><g transform="translate(-0.544 2.374)"><path class="c" d="M415.186,184.9l-.042-.013a.024.024,0,0,0-.029.016.024.024,0,0,0,.016.029l.042.012a.024.024,0,0,0,.029-.016.023.023,0,0,0-.016-.029Z" transform="translate(-415.114 -184.884)"/></g><g transform="translate(0.584 0.649)"><path class="c" d="M418.6,179.587a22.253,22.253,0,0,1,1.885,2.344c.574.815,1.1,1.661,1.6,2.521s.982,1.748,1.455,2.632.941,1.777,1.424,2.659.979,1.751,1.512,2.6q.1.156.2.312c.012.019.043,0,.031-.017-.544-.848-1.05-1.72-1.538-2.6s-.956-1.769-1.429-2.656-.951-1.778-1.452-2.653-1.021-1.724-1.588-2.55a23.1,23.1,0,0,0-1.826-2.344c-.082-.092-.165-.183-.249-.273-.016-.016-.04.008-.025.025Z" transform="translate(-418.598 -179.558)"/></g><g transform="translate(2.429 1.017)"><path class="c" d="M424.327,182.625l.455-1.907c.005-.022-.029-.032-.034-.01l-.455,1.907c-.005.022.028.032.033.01Z" transform="translate(-424.293 -180.695)"/></g><g transform="translate(3.64 1.971)"><path class="c" d="M428.064,186.476a3.758,3.758,0,0,0,1.075-2.114,3.654,3.654,0,0,0,.036-.7c0-.022-.036-.023-.035,0a3.724,3.724,0,0,1-.657,2.268,3.607,3.607,0,0,1-.444.526c-.016.016.008.041.024.025Z" transform="translate(-428.035 -183.641)"/></g><g transform="translate(-0.641 3.734)"><path class="c" d="M418.4,189.085a3.656,3.656,0,0,1-2.887.407,2.325,2.325,0,0,1-.676-.367c-.018-.014-.036.017-.018.03a2.957,2.957,0,0,0,2.762.325,5.423,5.423,0,0,0,.836-.364.017.017,0,0,0-.017-.03Z" transform="translate(-414.816 -189.083)"/></g><g transform="translate(-0.522 6.181)"><path class="c" d="M420.1,196.638a9.034,9.034,0,0,1-3.8.354,8.907,8.907,0,0,1-1.1-.2c-.022-.005-.032.028-.01.034a9.072,9.072,0,0,0,3.841.118,8.961,8.961,0,0,0,1.072-.268c.021-.007.013-.041-.008-.034Z" transform="translate(-415.184 -196.637)"/></g><g transform="translate(5.15 1.972)"><path class="c" d="M432.725,189.221a12.273,12.273,0,0,0,2.024-2,4.533,4.533,0,0,0,.925-2.256,3.076,3.076,0,0,0-.152-1.313c-.008-.021-.042-.013-.034.008a3.414,3.414,0,0,1-.093,2.33,6.111,6.111,0,0,1-1.523,2.164c-.374.364-.772.7-1.172,1.038-.018.015.007.04.024.025Z" transform="translate(-432.694 -183.643)"/></g></g></g><path class="u" d="M318.72,396.676c0,1.01-8.039,1.829-17.955,1.829s-17.955-.819-17.955-1.829,8.039-1.829,17.955-1.829S318.72,395.666,318.72,396.676Z" transform="translate(-198.717 -272.88)"/><g transform="translate(46.533 28.912)"><rect class="aa" width="57.955" height="91.152" rx="15.913"/><path class="ab" d="M226.14,135.959H175.725v72.5h51.789v-72.5Z" transform="translate(-172.849 -126.755)"/><circle class="ac" cx="3.165" cy="3.165" r="3.165" transform="translate(25.056 89.388) rotate(-77.038)"/><path class="ac" d="M227.5,120.114a.969.969,0,1,1-.969-.969A.969.969,0,0,1,227.5,120.114Z" transform="translate(-206.546 -115.387)"/><path class="ac" d="M253.8,121.18H236.637a.741.741,0,0,1-.738-.738h0a.741.741,0,0,1,.738-.739H253.8a.741.741,0,0,1,.738.739h0A.741.741,0,0,1,253.8,121.18Z" transform="translate(-213.533 -115.764)"/></g><g transform="translate(8.369 78.333)"><path class="ad" d="M91.91,285.189l.278,32.886h-.971l.278-32.886Z" transform="translate(-77.548 -277.072)"/><g transform="translate(10.142 12.446)"><path class="ad" d="M84.446,306.762h-.208a9.826,9.826,0,0,0-3.907-8.033l.113-.175A10.048,10.048,0,0,1,84.446,306.762Z" transform="translate(-80.331 -298.554)"/></g><g transform="translate(14.05 10.719)"><path class="ad" d="M92.6,298.058l-.206-.028c.006-.046.675-4.6,4.051-4.808l.013.208C93.255,293.63,92.609,298.014,92.6,298.058Z" transform="translate(-92.397 -293.222)"/></g><g transform="translate(8.312 21.72)"><path class="ad" d="M80.42,330.978a4.083,4.083,0,0,0-3.146-3.338,7.331,7.331,0,0,0-2.567-.214l-.026-.207c.051-.006,5.1-.6,5.943,3.72Z" transform="translate(-74.681 -327.188)"/></g><g transform="translate(14.057 19.346)"><path class="ad" d="M92.61,322.751l-.194-.075a4.55,4.55,0,0,1,4.371-2.807l-.014.208A4.331,4.331,0,0,0,92.61,322.751Z" transform="translate(-92.416 -319.858)"/></g><g transform="translate(14.062 25.393)"><path class="ad" d="M92.616,343.085l-.183-.1a14.826,14.826,0,0,1,1.547-2.221c1.264-1.486,2.489-2.24,3.643-2.24v.208C95.01,338.734,92.639,343.042,92.616,343.085Z" transform="translate(-92.433 -338.526)"/></g><g transform="translate(12.176 34.343)"><path class="ad" d="M88.8,368.786c-.6-2.391-2.173-2.419-2.189-2.419v-.208c.017,0,1.754.029,2.391,2.577Z" transform="translate(-86.61 -366.159)"/></g><path class="ac" d="M76.344,380.522H86.811L85.53,394.394H78.373Z" transform="translate(-67.493 -341.527)"/><path class="ae" d="M73.046,380.522H86.077l-.748,3.82H73.794Z" transform="translate(-65.263 -341.527)"/><path class="af" d="M76.712,268.036s-4.163-.624-3.954-3.33a7.122,7.122,0,0,0-1.249-4.579s12.072,1.041,6.868,7.909Z" transform="translate(-64.224 -260.127)"/><path class="af" d="M59.216,324.711s-7.285.624-10.2,4.371C49.017,329.082,49.225,319.924,59.216,324.711Z" transform="translate(-49.017 -302.856)"/><path class="af" d="M89.469,353.82s3.122-.832,3.538,0-2.706,5-2.706,5a7.259,7.259,0,0,0-3.122-1.873c-1.457-.208-5-2.081-3.538-2.914s5.828-.208,5.828-.208" transform="translate(-72.193 -323.223)"/><path class="af" d="M78.229,282.167s-2.235-.6-2.533,0,1.937,3.575,1.937,3.575a5.2,5.2,0,0,1,2.235-1.341c1.043-.149,3.575-1.49,2.532-2.086s-4.171-.149-4.171-.149" transform="translate(-67.037 -274.85)"/><path class="af" d="M98.5,316.807a9.345,9.345,0,0,1,8.95,3.747S105.576,309.73,98.5,316.807Z" transform="translate(-82.472 -296.826)"/><path class="af" d="M62.229,293.641s-6.036-2.5-9.366,2.29c0,0-.208-3.122,2.081-4.371S60.356,289.686,62.229,293.641Z" transform="translate(-51.614 -280.736)"/><path class="ag" d="M103.015,292.337a2.805,2.805,0,0,0,2.4.4,3.1,3.1,0,0,1,2.665.78S106.846,290.191,103.015,292.337Z" transform="translate(-85.526 -281.416)"/><path class="af" d="M101.712,336.935s3.746-1.665,5.828.416C107.54,337.351,103.585,331.523,101.712,336.935Z" transform="translate(-84.645 -310.501)"/><path class="af" d="M72.631,363.571s-5.2-.416-5.619,4.579a5.058,5.058,0,0,1,3.954-1.041C73.255,367.526,75.336,364.82,72.631,363.571Z" transform="translate(-61.183 -330.061)"/></g><g transform="translate(104.915 88.683)"><path class="d" d="M375.645,295.178l-2.09,7.955a2.318,2.318,0,0,0,.989,2.54l6.921,4.446a2.46,2.46,0,0,1-1.189,4.525l-8.212.471a2.319,2.319,0,0,0-2.109,1.726l-2.09,7.955a2.459,2.459,0,0,1-4.671.268l-2.986-7.664a2.318,2.318,0,0,0-2.293-1.473l-8.212.471a2.46,2.46,0,0,1-1.7-4.359l6.367-5.208a2.318,2.318,0,0,0,.692-2.636l-2.986-7.665a2.459,2.459,0,0,1,3.621-2.962l6.921,4.446a2.318,2.318,0,0,0,2.721-.156l6.367-5.208A2.46,2.46,0,0,1,375.645,295.178Z" transform="translate(-347.098 -292.083)"/><g class="ah"><path class="e" d="M374.98,292.812l-2.09,7.955a2.318,2.318,0,0,0,.989,2.54l6.921,4.446a2.46,2.46,0,0,1-1.189,4.525l-8.212.471a2.319,2.319,0,0,0-2.11,1.726l-2.09,7.955a2.459,2.459,0,0,1-4.671.268l-2.986-7.664a2.318,2.318,0,0,0-2.293-1.473l-8.212.471a2.46,2.46,0,0,1-1.7-4.359l6.367-5.208a2.318,2.318,0,0,0,.692-2.636l-2.986-7.665a2.459,2.459,0,0,1,3.621-2.962l6.921,4.446a2.318,2.318,0,0,0,2.721-.156l6.367-5.208A2.46,2.46,0,0,1,374.98,292.812Z" transform="translate(-346.648 -290.483)"/></g><path class="ai" d="M386.71,308.612c.782.323,1.538.691,2.284,1.075.094.048.188.1.276.135l.133.063.137.053a3.223,3.223,0,0,0,.562.159,3.263,3.263,0,0,0,1.157.022,3.22,3.22,0,0,0,1.1-.361,3.139,3.139,0,0,0,.491-.316l.116-.091.12-.1.243-.2c.647-.535,1.307-1.056,2-1.538-.546.646-1.127,1.253-1.722,1.847-.153.15-.285.3-.461.444a3.66,3.66,0,0,1-.542.4,3.542,3.542,0,0,1-2.612.39,3.694,3.694,0,0,1-.635-.221l-.153-.07-.146-.082c-.1-.056-.186-.113-.274-.17C388.08,309.595,387.382,309.126,386.71,308.612Z" transform="translate(-373.88 -302.515)"/><path class="ai" d="M369,299.67c-.388-.2-.77-.416-1.149-.64-.048-.028-.1-.056-.14-.08l-.067-.038-.067-.033a2.076,2.076,0,0,0-.269-.11,1.589,1.589,0,0,0-.515-.09.99.99,0,0,0-.439.085.733.733,0,0,0-.176.108l-.04.032-.04.037-.082.073a6.592,6.592,0,0,1-.685.55,6.6,6.6,0,0,1,.521-.707,1.728,1.728,0,0,1,.146-.167.828.828,0,0,1,.188-.14,1.072,1.072,0,0,1,.5-.112,1.8,1.8,0,0,1,.6.119,2.545,2.545,0,0,1,.309.143l.076.042.075.047c.052.032.1.063.144.095C368.264,299.135,368.634,299.393,369,299.67Z" transform="translate(-359.424 -296.38)"/><path class="ai" d="M352.035,351.887c-.366.236-.745.459-1.128.676-.048.027-.1.055-.139.081l-.066.039-.062.042a2.05,2.05,0,0,0-.23.178,1.573,1.573,0,0,0-.335.4.989.989,0,0,0-.145.423.73.73,0,0,0,.005.206l.008.051.013.053.022.107a6.652,6.652,0,0,1,.133.869,6.636,6.636,0,0,1-.352-.805,1.73,1.73,0,0,1-.072-.21.813.813,0,0,1-.028-.233,1.075,1.075,0,0,1,.154-.491,1.815,1.815,0,0,1,.4-.462,2.561,2.561,0,0,1,.279-.2l.074-.045.078-.041c.053-.028.1-.052.154-.077C351.206,352.255,351.614,352.064,352.035,351.887Z" transform="translate(-348.83 -332.517)"/></g><g class="aj" transform="translate(57.74 46.225)"><path class="ak" d="M221.251,162.634l2.741,7.755a2.319,2.319,0,0,0,2.245,1.545l8.223-.211a2.459,2.459,0,0,1,1.559,4.411l-6.528,5a2.318,2.318,0,0,0-.776,2.613l2.741,7.755a2.459,2.459,0,0,1-3.713,2.846l-6.776-4.663a2.319,2.319,0,0,0-2.725.07l-6.529,5a2.46,2.46,0,0,1-3.854-2.652l2.341-7.885a2.319,2.319,0,0,0-.908-2.57l-6.776-4.663a2.46,2.46,0,0,1,1.331-4.485l8.223-.211a2.318,2.318,0,0,0,2.163-1.658l2.341-7.885A2.459,2.459,0,0,1,221.251,162.634Z" transform="translate(-201.447 -160.994)"/></g><g transform="translate(89.559 117.857)"><path class="e" d="M332.183,382.914a142.021,142.021,0,0,0-29.792.009,2.875,2.875,0,0,0-.323.042h0a2.935,2.935,0,0,0-2.383,2.873h0a2.934,2.934,0,0,0,2.925,2.925h29.572a2.933,2.933,0,0,0,2.925-2.925h0A2.933,2.933,0,0,0,332.183,382.914Z" transform="translate(-299.686 -382.157)"/><g class="al"><path class="am" d="M322.967,388.739s-4.441-.65-4.225-3.358,4.658-3.25,4.658-3.25-12.457-.325-14.19,2.6S315.276,389.172,322.967,388.739Z" transform="translate(-305.96 -382.132)"/><path class="an" d="M352.627,382.154s3.9.108,3.9,3.358c0,2.717-4.333,3.25-4.333,3.25s11.494,1.087,13.473-1.677S360.327,382.386,352.627,382.154Z" transform="translate(-335.187 -382.155)"/></g></g><g class="ao" transform="translate(57.358 95.723)"><path class="ap" d="M238.485,315.592H201.152a.889.889,0,0,1-.886-.886h0a.889.889,0,0,1,.886-.886h37.333a.889.889,0,0,1,.886.886h0A.889.889,0,0,1,238.485,315.592Z" transform="translate(-200.266 -313.82)"/><path class="ap" d="M238.485,325.787H201.152a.889.889,0,0,1-.886-.886h0a.889.889,0,0,1,.886-.886h37.333a.889.889,0,0,1,.886.886h0A.889.889,0,0,1,238.485,325.787Z" transform="translate(-200.266 -320.713)"/><path class="ap" d="M214.28,335.484H201.152a.889.889,0,0,1-.886-.886h0a.889.889,0,0,1,.886-.886H214.28a.889.889,0,0,1,.886.886h0A.889.889,0,0,1,214.28,335.484Z" transform="translate(-200.266 -327.269)"/></g><g transform="translate(56.705 90.072)"><path class="aq" d="M200.447,296.528l.447.906,1,.145a.283.283,0,0,1,.157.483l-.724.705.171,1a.283.283,0,0,1-.411.3l-.894-.47-.895.47a.283.283,0,0,1-.411-.3l.171-1-.724-.705a.283.283,0,0,1,.157-.483l1-.145.447-.906A.283.283,0,0,1,200.447,296.528Z" transform="translate(-198.25 -296.371)"/><path class="ar" d="M203.29,300.167a.279.279,0,0,1-.078.135l-.724.705.171,1a.283.283,0,0,1-.411.3l-.895-.47-.894.47a.277.277,0,0,1-.244.009l0,.02a.283.283,0,0,0,.411.3l.895-.47.894.47a.283.283,0,0,0,.411-.3l-.171-1,.724-.705A.283.283,0,0,0,203.29,300.167Z" transform="translate(-199.574 -298.937)"/><path class="as" d="M202.74,297.779l.364-.785c.027-.057-.058-.107-.085-.05l-.364.785c-.027.057.058.107.085.05Z" transform="translate(-201.225 -296.741)"/><path class="as" d="M199.734,301.613l-.635-.588c-.046-.043-.12.022-.073.065l.635.588c.046.042.12-.023.073-.065Z" transform="translate(-198.765 -299.508)"/></g><g transform="translate(61.819 90.072)"><path class="aq" d="M216.237,296.528l.447.906,1,.145a.283.283,0,0,1,.157.483l-.724.705.171,1a.283.283,0,0,1-.411.3l-.895-.47-.894.47a.283.283,0,0,1-.411-.3l.171-1-.724-.705a.283.283,0,0,1,.157-.483l1-.145.447-.906A.283.283,0,0,1,216.237,296.528Z" transform="translate(-214.04 -296.371)"/><path class="ar" d="M219.08,300.167a.279.279,0,0,1-.078.135l-.724.705.171,1a.283.283,0,0,1-.411.3l-.895-.47-.895.47a.276.276,0,0,1-.244.009l0,.02a.283.283,0,0,0,.411.3l.894-.47.895.47a.283.283,0,0,0,.411-.3l-.171-1,.724-.705A.283.283,0,0,0,219.08,300.167Z" transform="translate(-215.364 -298.937)"/><path class="as" d="M218.529,297.779l.364-.785c.027-.057-.058-.107-.085-.05l-.364.785c-.026.057.058.107.085.05Z" transform="translate(-217.014 -296.741)"/><path class="as" d="M215.524,301.613l-.635-.588c-.046-.043-.12.022-.073.065l.635.588c.046.042.12-.023.073-.065Z" transform="translate(-214.554 -299.508)"/></g><g transform="translate(66.933 90.152)"><path class="aq" d="M232.027,296.777l.447.906,1,.145a.283.283,0,0,1,.157.483l-.724.705.171,1a.283.283,0,0,1-.411.3l-.895-.47-.895.47a.283.283,0,0,1-.411-.3l.171-1-.724-.705a.283.283,0,0,1,.157-.483l1-.145.447-.906A.283.283,0,0,1,232.027,296.777Z" transform="translate(-229.829 -296.619)"/><path class="ar" d="M234.87,300.415a.279.279,0,0,1-.078.135l-.724.705.171,1a.283.283,0,0,1-.411.3l-.895-.47-.895.47a.278.278,0,0,1-.244.009l0,.02a.283.283,0,0,0,.411.3l.895-.47.895.47a.283.283,0,0,0,.411-.3l-.171-1,.724-.705A.283.283,0,0,0,234.87,300.415Z" transform="translate(-231.153 -299.186)"/><path class="as" d="M234.319,298.028l.364-.785c.026-.057-.058-.107-.085-.05l-.364.785c-.027.057.058.107.085.05Z" transform="translate(-232.804 -296.99)"/><path class="as" d="M231.314,301.862l-.635-.588c-.046-.043-.12.022-.073.065l.635.588c.046.043.12-.022.073-.065Z" transform="translate(-230.344 -299.757)"/></g><g class="at" transform="translate(77.959 90.152)"><path class="au" d="M266.07,296.777l.447.906,1,.145a.283.283,0,0,1,.157.483l-.724.705.171,1a.283.283,0,0,1-.411.3l-.895-.47-.895.47a.283.283,0,0,1-.411-.3l.171-1-.724-.705a.283.283,0,0,1,.157-.483l1-.145.447-.906A.283.283,0,0,1,266.07,296.777Z" transform="translate(-263.872 -296.619)"/><path class="ar" d="M268.913,300.415a.279.279,0,0,1-.078.135l-.724.705.171,1a.283.283,0,0,1-.411.3l-.895-.47-.895.47a.278.278,0,0,1-.244.009l0,.02a.283.283,0,0,0,.411.3l.895-.47.895.47a.283.283,0,0,0,.411-.3l-.171-1,.724-.705A.283.283,0,0,0,268.913,300.415Z" transform="translate(-265.196 -299.186)"/><path class="av" d="M268.362,298.028l.364-.785c.026-.057-.058-.107-.085-.05l-.364.785c-.027.057.058.107.085.05Z" transform="translate(-266.847 -296.99)"/><path class="av" d="M265.357,301.862l-.635-.588c-.046-.043-.12.022-.073.065l.635.588c.046.043.12-.022.073-.065Z" transform="translate(-264.387 -299.757)"/></g><g class="aw" transform="translate(49.355 38.022)"><g class="ax"><path class="s" d="M153.471,133.657l59.725-28.5L193.13,98.5l-46.244,21.066Z" transform="translate(-156.174 -110.535)"/><path class="s" d="M161.495,183.407l63.644-30.824-1.724-3.872-64.427,31.134Z" transform="translate(-164.354 -144.486)"/><path class="s" d="M155.114,273.025l71.011-39.189,2.038,8.364L175.65,269l46.871-20.291L166.4,278.136l-10.032-.155Z" transform="translate(-161.737 -202.04)"/><path class="s" d="M224.417,219.011,166.73,257.58l57.687-36.091-.941-2.478" transform="translate(-169.59 -192.017)"/></g></g><g transform="translate(17.693 56.571)"><path class="d" d="M102.507,195.588l-.608,8.2a2.318,2.318,0,0,0,1.435,2.317l7.613,3.114a2.459,2.459,0,0,1-.346,4.665l-7.989,1.956a2.319,2.319,0,0,0-1.761,2.08l-.609,8.2a2.459,2.459,0,0,1-4.544,1.112l-4.329-6.994a2.319,2.319,0,0,0-2.523-1.032l-7.989,1.956a2.46,2.46,0,0,1-2.462-3.978l5.314-6.279a2.318,2.318,0,0,0,.2-2.718L79.58,201.2A2.46,2.46,0,0,1,82.6,197.63l7.613,3.114a2.319,2.319,0,0,0,2.647-.648l5.314-6.279A2.459,2.459,0,0,1,102.507,195.588Z" transform="translate(-77.802 -192.94)"/><g class="ay"><path class="e" d="M101.423,193.382l-.608,8.2a2.318,2.318,0,0,0,1.435,2.318l7.613,3.114a2.459,2.459,0,0,1-.346,4.665l-7.989,1.956a2.319,2.319,0,0,0-1.761,2.081l-.609,8.2a2.459,2.459,0,0,1-4.544,1.113l-4.329-6.994a2.318,2.318,0,0,0-2.523-1.032l-7.989,1.956a2.46,2.46,0,0,1-2.462-3.978l5.314-6.278a2.318,2.318,0,0,0,.2-2.718L78.5,198.995a2.46,2.46,0,0,1,3.023-3.571l7.613,3.114a2.319,2.319,0,0,0,2.647-.648l5.314-6.279A2.459,2.459,0,0,1,101.423,193.382Z" transform="translate(-77.069 -191.448)"/></g><path class="ai" d="M108.047,213.524c.828.175,1.638.4,2.442.642.1.03.2.061.3.083l.142.038.144.027a3.191,3.191,0,0,0,.582.054,3.258,3.258,0,0,0,1.142-.189,3.217,3.217,0,0,0,1.015-.555,3.144,3.144,0,0,0,.426-.4l.1-.11.1-.122.2-.241c.539-.644,1.093-1.276,1.689-1.876-.419.735-.881,1.437-1.358,2.129-.123.176-.226.342-.372.52a3.638,3.638,0,0,1-.461.489,3.544,3.544,0,0,1-2.5.859,3.7,3.7,0,0,1-.665-.1l-.163-.041-.159-.054c-.108-.037-.2-.077-.3-.117C109.573,214.241,108.8,213.907,108.047,213.524Z" transform="translate(-98.251 -205.066)"/><path class="ai" d="M89.014,210.659c-.417-.125-.832-.269-1.247-.42-.052-.019-.1-.038-.152-.053l-.073-.025-.073-.02a2.076,2.076,0,0,0-.285-.059,1.577,1.577,0,0,0-.522,0,.99.99,0,0,0-.417.164.754.754,0,0,0-.154.138l-.033.039-.032.044-.067.086a6.577,6.577,0,0,1-.574.665,6.647,6.647,0,0,1,.384-.79,1.753,1.753,0,0,1,.113-.19.828.828,0,0,1,.16-.172,1.074,1.074,0,0,1,.474-.2,1.8,1.8,0,0,1,.613.007,2.519,2.519,0,0,1,.33.085l.083.027.083.032c.056.022.107.045.158.068C88.2,210.267,88.605,210.453,89.014,210.659Z" transform="translate(-82.93 -204.369)"/><path class="ai" d="M82.092,264.751c-.317.3-.649.587-.987.87-.042.036-.086.071-.122.1l-.058.051-.054.052a2.11,2.11,0,0,0-.194.217,1.58,1.58,0,0,0-.257.455.989.989,0,0,0-.066.442.746.746,0,0,0,.043.2l.017.048.022.05.041.1a6.629,6.629,0,0,1,.289.83,6.639,6.639,0,0,1-.492-.728,1.748,1.748,0,0,1-.109-.193.821.821,0,0,1-.07-.224,1.074,1.074,0,0,1,.062-.511,1.81,1.81,0,0,1,.313-.527,2.513,2.513,0,0,1,.238-.244l.065-.058.07-.055c.047-.038.092-.07.137-.1C81.343,265.264,81.71,265,82.092,264.751Z" transform="translate(-79.348 -241.492)"/><g transform="translate(8.703 74.104)"><path class="g" d="M109.436,423.362l-2.448,3.991.409,3.177s2.248.488,1.431.977-2.453.489-2.657,0-1.84-5.131-1.431-5.376,1.431-.733,1.431-.733l1.431-3.665Z" transform="translate(-104.673 -421.733)"/><g class="az"><path class="ba" d="M105.622,434.962l-.2-.978s-.818,0-.818-.733.2-1.71-.818-1.71-1.431,2.932-1.431,2.932l1.022,3.177,1.022,1.222h2.862l.818-1.466Z" transform="translate(-103.103 -428.364)"/></g></g><g transform="translate(23.955 73.371)"><path class="g" d="M154.156,419.469v7.087s4.7,1.955,4.293,2.444c0,0-5.928,0-5.928-.489s.2-2.2.2-2.2l-.962-6.451Z" transform="translate(-151.763 -419.469)"/><g class="bb"><path class="ba" d="M149.63,440.329s.818-.245,1.022.244,1.226-.733,1.226-.733l5.315,2.2-1.84,2.444-7.563-1.71Z" transform="translate(-149.077 -433.242)"/></g></g><g transform="translate(11.222 42.337)"><path class="h" d="M123.487,323.653l-7.359,3.176s-2.044,7.575-1.84,9.286.818,10.752.409,11.485-2.248,8.553-2.248,8.553,2.862,1.222,2.657,1.222,5.315-7.576,5.519-10.508.409-4.4.409-4.4,3.475,8.064,4.293,13.44l2.862-.489s-.2-16.861-1.431-22.237A48.362,48.362,0,0,0,123.487,323.653Z" transform="translate(-112.449 -323.653)"/><g class="bc"><path class="bd" d="M139.773,370.4l-.818-2.932.409-6.842s.409,2.932.818,3.177.409,1.222,0,1.711a6.231,6.231,0,0,0-.409,2.443s.818,3.665,0,3.421S139.773,370.4,139.773,370.4Z" transform="translate(-130.37 -348.647)"/><g class="be" transform="translate(13.082 3.176)"><path class="bf" d="M153.2,334.193h-.051a.372.372,0,0,1,0-.733h.051a.372.372,0,0,1,0,.733Z" transform="translate(-152.838 -333.46)"/></g><g class="be" transform="translate(1.456 2.137)"><path class="bg" d="M120.68,330.367a7.129,7.129,0,0,1-1.278,3.772,1.825,1.825,0,0,1-2.421.463c-.087-.055-.01-.213.077-.158,1.088.686,2.2-.09,2.765-1.246a9.6,9.6,0,0,0,.709-2.879c.016-.116.164-.067.148.049Z" transform="translate(-116.943 -330.252)"/></g><g class="be" transform="translate(7.814 -1.166)"><path class="bg" d="M141.591,324.372c-2.272-.09-3.725-2.183-5-4.189a.081.081,0,1,1,.132-.092c1.24,1.948,2.646,4.01,4.869,4.1.1,0,.1.187,0,.183Z" transform="translate(-136.575 -320.052)"/></g><g class="be" transform="translate(-0.637 0.249)"><path class="bg" d="M123.308,324.593a21.929,21.929,0,0,1-12.751,4.129c-.1,0-.1-.184,0-.183a21.782,21.782,0,0,0,12.674-4.1c.085-.06.162.1.077.158Z" transform="translate(-110.483 -324.421)"/></g><g class="be" transform="translate(8.252 1.319)"><path class="bg" d="M138.191,328.933a5.914,5.914,0,0,0-.26-1.1.078.078,0,1,1,.148-.049,5.914,5.914,0,0,1,.26,1.1c.016.115-.132.165-.148.049Z" transform="translate(-137.926 -327.724)"/></g><g class="be" transform="translate(6.565 1.376)"><path class="bg" d="M133.332,329.606a8.817,8.817,0,0,0-.6-1.568c-.051-.1.082-.194.132-.093a9.1,9.1,0,0,1,.617,1.612.078.078,0,1,1-.148.049Z" transform="translate(-132.719 -327.901)"/></g><g class="be" transform="translate(-1.427 3.895)"><path class="bg" d="M114.8,335.793a52.009,52.009,0,0,0-.854,8.941q-.016,2.2.158,4.4a29.015,29.015,0,0,1,.225,4.346c-.172,2.423-1.344,4.7-2.359,6.742a50.522,50.522,0,0,1-3.8,6.413c-.063.091-.171-.04-.109-.13a50.113,50.113,0,0,0,3.868-6.564c1.278-2.609,2.425-5.176,2.236-8.288-.164-2.706-.435-5.354-.353-8.077a52.534,52.534,0,0,1,.839-7.831c.021-.115.169-.066.148.049Z" transform="translate(-108.042 -335.679)"/></g><g class="be" transform="translate(10.756 2.353)"><path class="bg" d="M150.518,353.124a49,49,0,0,0-4.849-22.069c-.051-.1.081-.194.132-.093a49.249,49.249,0,0,1,4.87,22.162.078.078,0,1,1-.154,0Z" transform="translate(-145.657 -330.919)"/></g></g></g><path class="bh" d="M150.946,420.936h3.679v-1.466l-3.679.489Z" transform="translate(-127.255 -346.099)"/><path class="bh" d="M111,421.53l3.181,2.211.617-1.267-3.386-1.789Z" transform="translate(-100.25 -346.92)"/><g transform="translate(8.822 19.396)"><path class="g" d="M113.094,263.171a8.2,8.2,0,0,1-1.5-.971c-.342-.37-1.53-1.842-1.317-2.724,0,0,1.526.578,1.984-.634.6-1.579-2.284-5.256-2.989-5.462s-2.269-1.159-3.741.029.642,6.259,2.235,6.5c0,0,1.71,2.824,1.119,3.738,0,0,2.432,1.034,3.349.358S113.094,263.171,113.094,263.171Z" transform="translate(-105.039 -252.824)"/><g class="bi"><path class="bj" d="M118.642,272.5l-.341-.37a3.558,3.558,0,0,1-1.4-.59s.847,1.1,1.558,1.13S118.642,272.5,118.642,272.5Z" transform="translate(-113.058 -265.478)"/></g></g><path class="bk" d="M117.058,262.739a.517.517,0,0,0-.28-.159.472.472,0,0,0-.342.054.561.561,0,0,0-.216.263.969.969,0,0,0-.042.156,1.05,1.05,0,0,0,0,.159,1.186,1.186,0,0,0,.084-.13l.082-.119a.733.733,0,0,1,.186-.178A.776.776,0,0,1,117.058,262.739Z" transform="translate(-103.745 -240.017)"/><path class="bk" d="M121.887,260.715a.372.372,0,0,0-.2-.112.336.336,0,0,0-.243.039.4.4,0,0,0-.154.187.65.65,0,0,0-.03.11.952.952,0,0,0,0,.113c.042-.064.079-.123.118-.177a.518.518,0,0,1,.132-.126A.549.549,0,0,1,121.887,260.715Z" transform="translate(-107.184 -238.682)"/><path class="bl" d="M120.813,258.691a.67.67,0,0,0-.385-.209.456.456,0,0,0-.228-.005.356.356,0,0,0-.189.134l.006.017a.79.79,0,0,0,.212.025c.063,0,.123-.023.187-.028a.742.742,0,0,1,.383.08Z" transform="translate(-106.341 -237.241)"/><path class="bl" d="M115.115,260.625a.751.751,0,0,1,.107-.377c.034-.055.083-.1.111-.153a.808.808,0,0,0,.076-.2l-.012-.013a.358.358,0,0,0-.207.106.457.457,0,0,0-.1.2.668.668,0,0,0,.007.438Z" transform="translate(-102.991 -238.2)"/><path class="bm" d="M121.74,268.73l-1.259.306a2.19,2.19,0,0,0,.875.391C121.711,269.442,121.74,268.73,121.74,268.73Z" transform="translate(-106.658 -244.182)"/><g transform="translate(11.018 27.83)"><path class="i" d="M115.6,296.52s1.575-3.465,1.89-4.095-5.669-8.189-5.669-9.134.945-4.724,4.095-4.409,7.874,2.52,7.244,4.409-.63,6.929,0,10.079c.393,1.965-1.666,3.44-3.271,4.271a2.966,2.966,0,0,1-3.144-.263Z" transform="translate(-111.821 -278.864)"/><g class="bn"><path class="bo" d="M122.838,284.255c-.356.178-6.225,2.055-7.3,1.74h0s2.312,6.27-1.07,8.584-1.958-8.722-1.958-8.722l6.075-2.431Z" transform="translate(-112.089 -281.948)"/></g></g><path class="g" d="M145.672,240.946c-.63-.315.315,2.52-.63,3.149s-7.559,6.3-7.559,6.3a55.62,55.62,0,0,0-6.25,2.32,3.222,3.222,0,0,0,1.236,3.365c2.729-.918,5.6-2.039,5.959-2.22.63-.315,8.5-9.134,9.134-9.764S146.3,241.261,145.672,240.946Z" transform="translate(-113.866 -225.381)"/><path class="i" d="M119.122,277.331a40.539,40.539,0,0,0-5.5,2.871c-1.039,1.411.094,1.739,1.984,1.739a22.178,22.178,0,0,0,4.75-1.245A3.222,3.222,0,0,1,119.122,277.331Z" transform="translate(-101.755 -249.997)"/><path class="bp" d="M94.57,251.981a.925.925,0,0,0-.945.945c0,.945,5.669,11.653,2.52,16.063s-10.078,4.095-10.708.945,3.779-2.52,2.52-4.725-2.2-3.464.945-4.724,2.834-2.2,1.575-4.095-.315-5.984,3.464-5.354a6.871,6.871,0,0,1,1.89-.315c.945,0,1.164,2.143,1.164,2.143S95.2,251.036,94.57,251.981Z" transform="translate(-82.922 -232.006)"/></g><g transform="translate(88.779 63.063)"><g transform="translate(29.646 36.954)"><path class="j" d="M402.888,357.363a19.906,19.906,0,0,1-2.093-5.384c-.917-3.972-4.583-7.944-4.583-7.944-.306-3.667-2.444-14.667-2.444-14.973,0,0-2.75-5.195-4.583,1.222s3.667,12.222,3.667,14.056,8.861,14.056,8.861,14.056l-.006.015A1.979,1.979,0,0,0,402.888,357.363Z" transform="translate(-388.81 -327.077)"/><g class="bq"><path class="br" d="M380.272,318.324c-2.611,0-5.383-3.255-5.383-3.255s-1.252.876-1.865,5.2c-.288,2.03-1.222,13.445-1.833,16.195-.6,2.7-2.679,16.927-2.748,17.4a1.775,1.775,0,0,0,1.742.067c.37-1.825,1.215-5.323,2.534-7.082,1.833-2.444,1.222-7.334,1.833-8.861s3.057-11.609,5.5-13.139C383.276,322.83,380.9,318.324,380.272,318.324Z" transform="translate(-375.04 -318.958)"/></g></g><path class="bs" d="M425.129,420.585a1.98,1.98,0,0,1-1.183,1.047l-.605,1.513s-.917.611-1.528.917,1.528.611,2.139,0a24.352,24.352,0,0,0,1.833-2.444A11.255,11.255,0,0,1,425.129,420.585Z" transform="translate(-381.404 -353.345)"/><path class="j" d="M378.726,313.686c-2.611,0-5.383-3.255-5.383-3.255s-1.252.876-1.865,5.2c-.288,2.029-1.222,13.444-1.833,16.195-.6,2.7-2.679,16.927-2.748,17.4a1.776,1.776,0,0,0,1.743.067c.37-1.825,1.214-5.323,2.533-7.082,1.833-2.444,1.222-7.333,1.833-8.861s3.057-11.609,5.5-13.139C381.73,318.192,379.352,313.686,378.726,313.686Z" transform="translate(-344.348 -278.869)"/><path class="bs" d="M361.4,430.211l0,.013-2.444.611c-1.222.917,3.972.611,3.972.611s.072-.457.217-1.169A1.776,1.776,0,0,1,361.4,430.211Z" transform="translate(-338.853 -359.853)"/><path class="bt" d="M345.079,282.558s6.7-1.182,10.4-2c0,0,2.456-2.9,4.957-2.625,1.613.174,4.218,1.527,1.147,2.844s-5.416,2.358-5.416,2.358l-10.763.528s-.4,1.378-.967,1.445-3.6.051-3.273-.368a7.817,7.817,0,0,1,2.157-1.018s-1.873.224-1.917-.151,3.678-1.01,3.678-1.01" transform="translate(-326.931 -256.882)"/><path class="bu" d="M374.818,278.539s.872,1.36.187,2.058a1.089,1.089,0,0,1,.724.3c.369.325.724.311.838.193a1.72,1.72,0,0,1,.347-.24,7.959,7.959,0,0,0,6.489-.937c3.6-2.065,4.262-3.223,3.753-4.107s-.682-2.235-3.271-1.679-5.342,2.927-6.039,3.294a10.674,10.674,0,0,1-1.488.62s-.243-.319-.553-.2A1.525,1.525,0,0,0,374.818,278.539Z" transform="translate(-349.704 -254.237)"/><g transform="translate(33.342 9.375)"><path class="k" d="M400.221,254.67a10.112,10.112,0,0,0,1.842-1.2c.42-.455,1.883-2.268,1.621-3.354,0,0-1.879.712-2.443-.78-.735-1.944,2.813-6.471,3.68-6.725s2.794-1.427,4.606.036-.79,7.707-2.752,8c0,0-2.1,3.477-1.377,4.6,0,0-2.994,1.273-4.124.441S400.221,254.67,400.221,254.67Z" transform="translate(-400.22 -241.93)"/><g class="bv"><path class="bj" d="M409.135,266.156l.42-.455a4.379,4.379,0,0,0,1.725-.726s-1.043,1.357-1.918,1.392S409.135,266.156,409.135,266.156Z" transform="translate(-406.091 -257.51)"/></g></g><g transform="translate(27.044 19.851)"><path class="l" d="M384.355,291.117c2.379.376,4.032.578,4.507-.876.3-.931.4-3.386,2.378-5.383,1.422-1.435,4.122-5.337,2.713-7.693s-4.431-1.139-5.088-1.113.587-1.778.587-1.778h0a9.193,9.193,0,0,0-6.394,4.64c-2.005,3.4-2.651,10.919-2.082,11.828Z" transform="translate(-380.777 -274.274)"/><g class="bw"><path class="bx" d="M374.266,289.183s11.57,2.384,14.388-4.353h0l-5.822-2.275s-3.669,2.925-6.1,2.583S374.266,289.183,374.266,289.183Z" transform="translate(-376.375 -279.105)"/></g></g><path class="bk" d="M413.77,254.138a.636.636,0,0,1,.345-.2.582.582,0,0,1,.421.067.694.694,0,0,1,.267.324,1.22,1.22,0,0,1,.052.192,1.246,1.246,0,0,1,0,.2,1.5,1.5,0,0,1-.1-.16l-.1-.146a.894.894,0,0,0-.229-.219A.956.956,0,0,0,413.77,254.138Z" transform="translate(-376.04 -240.667)"/><path class="bk" d="M408.488,251.646a.456.456,0,0,1,.245-.139.412.412,0,0,1,.3.047.494.494,0,0,1,.189.23.872.872,0,0,1,.037.136,1.183,1.183,0,0,1,0,.139c-.052-.078-.1-.151-.145-.217a.643.643,0,0,0-.162-.155A.676.676,0,0,0,408.488,251.646Z" transform="translate(-372.468 -239.023)"/><path class="ba" d="M409.364,249.154a.82.82,0,0,1,.474-.257.559.559,0,0,1,.28-.007.44.44,0,0,1,.233.166l-.008.02a.989.989,0,0,1-.261.03c-.078,0-.151-.028-.231-.034a.918.918,0,0,0-.472.1Z" transform="translate(-373.061 -237.249)"/><path class="ba" d="M417.535,251.536a.918.918,0,0,0-.131-.464c-.042-.068-.1-.119-.137-.189a.988.988,0,0,1-.094-.246l.015-.016a.44.44,0,0,1,.254.13.559.559,0,0,1,.123.252.822.822,0,0,1-.009.539Z" transform="translate(-378.34 -238.431)"/><path class="bp" d="M408.259,238.3s-1.416-.892-.916-1.768,1.878,0,1.878,0-1.878-1.753-.751-2.379,3.38,1.127,3.38,1.127-.375-1.252.5-1.627,3.505,2.5,2.879,4.256c0,0,2.754,1,.25,4.006s-4.006,3.129-4.006,3.129a3.176,3.176,0,0,1,.25-2.253.548.548,0,0,0,.751.25c.5-.25,1.127-1,1-1.377s-1.628.125-1.628.125-.626-1.377,0-2,0-.876,0-.876-2.371.084-2.938-1.21A2.457,2.457,0,0,0,408.259,238.3Z" transform="translate(-371.622 -226.938)"/><path class="bp" d="M407.891,256.806s-1.193,1.4-2.32,1.273-1.723-1.3-3.052-.962c0,0-1.079,1.213-.828,2.214s4.131,2.5,6.384-2C408.075,257.328,408.208,256.66,407.891,256.806Z" transform="translate(-367.847 -242.598)"/><path class="bm" d="M407.047,261.515l1.55.377a2.692,2.692,0,0,1-1.077.481C407.082,262.391,407.047,261.515,407.047,261.515Z" transform="translate(-371.494 -245.796)"/><path class="d" d="M312.683,213.983l4.9,6.605a2.318,2.318,0,0,0,2.6.816l7.8-2.62a2.459,2.459,0,0,1,2.788,3.757l-4.767,6.7a2.318,2.318,0,0,0,.027,2.726l4.9,6.605a2.46,2.46,0,0,1-2.712,3.812l-7.848-2.463a2.318,2.318,0,0,0-2.583.868l-4.768,6.7a2.459,2.459,0,0,1-4.464-1.4l-.083-8.225a2.318,2.318,0,0,0-1.624-2.189L299,233.217a2.459,2.459,0,0,1-.047-4.678l7.8-2.62a2.319,2.319,0,0,0,1.58-2.221l-.083-8.225A2.459,2.459,0,0,1,312.683,213.983Z" transform="translate(-297.278 -212.984)"/><g class="by"><path class="e" d="M310.42,213.022l4.9,6.605a2.318,2.318,0,0,0,2.6.816l7.8-2.621a2.46,2.46,0,0,1,2.788,3.757l-4.768,6.7a2.319,2.319,0,0,0,.027,2.726l4.9,6.605a2.459,2.459,0,0,1-2.711,3.812l-7.848-2.463a2.318,2.318,0,0,0-2.583.868l-4.768,6.7a2.459,2.459,0,0,1-4.464-1.4l-.083-8.225a2.319,2.319,0,0,0-1.624-2.189l-7.848-2.463a2.46,2.46,0,0,1-.047-4.678l7.8-2.62a2.318,2.318,0,0,0,1.58-2.221l-.083-8.225A2.459,2.459,0,0,1,310.42,213.022Z" transform="translate(-295.749 -212.334)"/></g><path class="ai" d="M321.728,244.253c.741-.409,1.5-.768,2.268-1.11.1-.043.193-.086.278-.131l.132-.064.127-.074a3.187,3.187,0,0,0,.476-.339,3.46,3.46,0,0,0,1.147-1.973,3.173,3.173,0,0,0,.06-.581l0-.147,0-.157,0-.315c-.013-.84-.007-1.68.052-2.524.163.83.273,1.664.364,2.5.022.213.053.406.059.637a3.648,3.648,0,0,1-.029.672,3.544,3.544,0,0,1-1.328,2.282,3.71,3.71,0,0,1-.57.357l-.15.075-.155.062c-.106.043-.2.075-.3.108C323.351,243.8,322.549,244.051,321.728,244.253Z" transform="translate(-313.809 -229.112)"/><path class="ai" d="M303.154,262.16c-.4.178-.806.34-1.218.5-.052.019-.1.039-.149.059l-.071.029-.068.032a2.089,2.089,0,0,0-.254.141,1.573,1.573,0,0,0-.392.345.987.987,0,0,0-.208.4.739.739,0,0,0-.026.2v.051l0,.054.006.109a6.632,6.632,0,0,1,0,.879,6.632,6.632,0,0,1-.226-.85,1.774,1.774,0,0,1-.039-.218.831.831,0,0,1,.008-.235,1.075,1.075,0,0,1,.227-.462,1.8,1.8,0,0,1,.469-.4,2.508,2.508,0,0,1,.305-.152l.08-.033.084-.029c.057-.02.11-.036.164-.052C302.278,262.4,302.711,262.271,303.154,262.16Z" transform="translate(-299.462 -246.232)"/><path class="ai" d="M334.256,308.548c-.044.433-.108.868-.178,1.3-.009.054-.018.109-.024.159l-.011.076-.006.075a2.035,2.035,0,0,0,0,.291,1.58,1.58,0,0,0,.1.512.989.989,0,0,0,.239.378.739.739,0,0,0,.164.125l.045.025.049.023.1.05a6.633,6.633,0,0,1,.761.439,6.658,6.658,0,0,1-.848-.229,1.792,1.792,0,0,1-.209-.075.819.819,0,0,1-.2-.124,1.072,1.072,0,0,1-.287-.427,1.8,1.8,0,0,1-.108-.6,2.491,2.491,0,0,1,.021-.34l.011-.086.016-.087c.011-.06.024-.113.037-.168C334.024,309.425,334.13,308.988,334.256,308.548Z" transform="translate(-321.998 -277.596)"/><g transform="translate(13.262 21.651)"><path class="k" d="M343,286.487s7.865-.751,12.226-1.363c0,0,5.308-4.377,8.18-3.834,1.852.351,2.548,3.407-1.131,4.65s-6.49,2.232-6.49,2.232l-12.514-.38s-.6,1.559-1.253,1.585-4.177-.272-3.757-.728a9.08,9.08,0,0,1,2.592-.98s-2.189.087-2.207-.351,4.352-.831,4.352-.831" transform="translate(-338.225 -280.786)"/><path class="l" d="M382.163,284.484s.826,1.864.1,2.635a1.124,1.124,0,0,1,.765.337c.39.36.765.346.885.215a1.8,1.8,0,0,1,.365-.265,8.05,8.05,0,0,0,6.849-1.024c3.793-2.28,4.494-3.561,3.954-4.542s-.725-2.477-3.457-1.867-5.634,3.231-6.37,3.636a10.921,10.921,0,0,1-1.57.684s-.257-.354-.584-.219S382.393,283.973,382.163,284.484Z" transform="translate(-367.932 -279.831)"/></g></g><g transform="translate(72.439 90.152)"><path class="aq" d="M232.027,296.777l.447.906,1,.145a.283.283,0,0,1,.157.483l-.724.705.171,1a.283.283,0,0,1-.411.3l-.895-.47-.895.47a.283.283,0,0,1-.411-.3l.171-1-.724-.705a.283.283,0,0,1,.157-.483l1-.145.447-.906A.283.283,0,0,1,232.027,296.777Z" transform="translate(-229.829 -296.619)"/><path class="ar" d="M234.87,300.415a.279.279,0,0,1-.078.135l-.724.705.171,1a.283.283,0,0,1-.411.3l-.895-.47-.895.47a.278.278,0,0,1-.244.009l0,.02a.283.283,0,0,0,.411.3l.895-.47.895.47a.283.283,0,0,0,.411-.3l-.171-1,.724-.705A.283.283,0,0,0,234.87,300.415Z" transform="translate(-231.153 -299.186)"/><path class="as" d="M234.319,298.028l.364-.785c.026-.057-.058-.107-.085-.05l-.364.785c-.027.057.058.107.085.05Z" transform="translate(-232.804 -296.99)"/><path class="as" d="M231.314,301.862l-.635-.588c-.046-.043-.12.022-.073.065l.635.588c.046.043.12-.022.073-.065Z" transform="translate(-230.344 -299.757)"/></g></g></g><text class="bz" transform="translate(38 174)"><tspan x="0" y="0">CUSTOMER REVIEWS</tspan></text><text class="ca" transform="translate(38 195)"><tspan x="0" y="0">We absolutely love our customers and </tspan><tspan x="0" y="16">we are proud to say that they love us </tspan><tspan x="0" y="32">back. Below you can see what our </tspan><tspan x="0" y="48">customers have to say about the </tspan><tspan x="0" y="64">products they have bought.</tspan></text><g transform="translate(22.5 183.712)"><path class="cb" d="M60.773,108.417H57.047v-2.665a9.083,9.083,0,0,1,.285-2.553,3.893,3.893,0,0,1,1.054-1.677,5.366,5.366,0,0,1,1.962-1.167l.729,1.538a3.131,3.131,0,0,0-1.6,1.034,3.054,3.054,0,0,0-.51,1.764h1.8Zm6.219,0H63.266v-2.665a9.066,9.066,0,0,1,.285-2.559,3.874,3.874,0,0,1,1.061-1.671,5.449,5.449,0,0,1,1.956-1.167l.729,1.538a3.132,3.132,0,0,0-1.6,1.034,3.054,3.054,0,0,0-.51,1.764h1.8Z" transform="translate(-57.047 -100.355)"/></g><g transform="translate(169.752 255.046)"><path class="cb" d="M369.418,222.87h3.726v2.665a9.085,9.085,0,0,1-.285,2.553,3.9,3.9,0,0,1-1.054,1.677,5.369,5.369,0,0,1-1.962,1.167l-.729-1.538a3.131,3.131,0,0,0,1.6-1.034,3.054,3.054,0,0,0,.51-1.764h-1.8Zm-6.219,0h3.726v2.665a9.065,9.065,0,0,1-.285,2.559,3.875,3.875,0,0,1-1.061,1.671,5.451,5.451,0,0,1-1.956,1.167l-.729-1.538a3.13,3.13,0,0,0,1.6-1.034A3.054,3.054,0,0,0,365,226.6h-1.8Z" transform="translate(-362.894 -222.87)"/></g></g></svg>