<svg xmlns="http://www.w3.org/2000/svg" width="14.81" height="14.81" viewBox="0 0 14.81 14.81"><defs><style>.a{fill:#00afef;}</style></defs><path class="a" d="M3.008,6.479H.694A.694.694,0,0,0,0,7.174v6.942a.694.694,0,0,0,.694.694H3.008a.694.694,0,0,0,.694-.694V7.174A.694.694,0,0,0,3.008,6.479ZM1.851,13.653a.694.694,0,1,1,.694-.694A.694.694,0,0,1,1.851,13.653Zm9.256-11.3c0,1.227-.751,1.915-.963,2.735h2.942A1.728,1.728,0,0,1,14.81,6.771a2.094,2.094,0,0,1-.562,1.423l0,0a2.416,2.416,0,0,1-.269,2.3,2.287,2.287,0,0,1-.474,2.162,1.536,1.536,0,0,1-.178,1.291c-.59.848-2.054.86-3.291.86H9.95a8.3,8.3,0,0,1-3.458-.918,4.552,4.552,0,0,0-1.523-.468.347.347,0,0,1-.341-.347V6.894a.347.347,0,0,1,.1-.246C5.877,5.515,6.37,4.316,7.309,3.376a3.5,3.5,0,0,0,.735-1.7C8.172,1.137,8.441,0,9.025,0,9.719,0,11.108.231,11.108,2.356Z"/></svg>