<svg xmlns="http://www.w3.org/2000/svg" width="221.939" height="60" viewBox="0 0 221.939 60"><defs><style>.a,.c{fill:#00afef;}.b,.c{stroke:none;}</style></defs><g class="a"><path class="b" d="M 221.1068572998047 59.5 L 5.000004291534424 59.5 C 2.518698692321777 59.5 0.5000043511390686 57.48130416870117 0.5000043511390686 55 L 0.5000043511390686 5 C 0.5000043511390686 2.518694400787354 2.518698692321777 0.5 5.000004291534424 0.5 L 189.6997375488281 0.5 L 221.1068572998047 59.5 Z"/><path class="c" d="M 5 1 C 2.794387817382813 1 1 2.794387817382813 1 5 L 1 55 C 1 57.20561218261719 2.794387817382813 59 5 59 L 220.2742767333984 59 L 189.3994750976563 1 L 5 1 M 5 0 L 190 0 L 221.939453125 60 L 5 60 C 2.238555908203125 60 0 57.76141738891602 0 55 L 0 5 C 0 2.238582611083984 2.238555908203125 0 5 0 Z"/></g></svg>