<svg xmlns="http://www.w3.org/2000/svg" width="42.179" height="41.933" viewBox="0 0 42.179 41.933"><defs><style>.a{fill:#fff;}.b{fill:#4f4230;}</style></defs><path class="a" d="M265.394,409.776a23.107,23.107,0,0,0,16.71-18.829c2.148-12.111-8.334-23.31-24.968-20.725s-17.984,18.188-16.462,24.91,12.2,17.689,24.72,14.644" transform="translate(-240.203 -368.366)"/><path class="b" d="M246.558,379.323a19.7,19.7,0,0,1,16.912-12.8,19.45,19.45,0,0,1,18.813,11.317,19.736,19.736,0,0,1-2.852,20.713,19.415,19.415,0,0,1-21.239,5.737c-10.1-3.541-15.113-15.053-11.634-24.969.107-.307-.6-.419-.682-.171a20.1,20.1,0,1,0,17.439-13.045,20.136,20.136,0,0,0-17.439,13.045c-.114.3.589.418.682.171" transform="translate(-243.359 -365.728)"/><path class="b" d="M278.673,396.331a20,20,0,0,1-20.6,8.587,20.488,20.488,0,0,1-15.71-15.692,19.76,19.76,0,0,1,30.555-20.385,20.278,20.278,0,0,1,5.751,27.49c-.163.259.536.4.682.171a20.5,20.5,0,0,0,1.08-19.917,21.165,21.165,0,0,0-15.888-11.434,20.7,20.7,0,0,0-18.18,6.5,20.263,20.263,0,0,0-4.281,19.278,21.113,21.113,0,0,0,17.142,14.615,20.646,20.646,0,0,0,20.126-9.041c.167-.253-.531-.4-.682-.171" transform="translate(-240.942 -364.927)"/><path class="b" d="M261.335,428.187a42.481,42.481,0,0,0,30-1.409l-.612-.137a20.7,20.7,0,0,1-1.391,6.944,13.767,13.767,0,0,1-11.208,9.21c-5.626.778-11.206-1.216-13.977-6.335a17.972,17.972,0,0,1-2.029-8.353c0-.063,0-.126,0-.188.012-.375-.865-.2-.874.1-.2,6.661,3.457,13.312,10.182,14.99a16.582,16.582,0,0,0,14.644-3.253c2.914-2.569,4.495-6.377,5.189-10.125a17.7,17.7,0,0,0,.336-3.1c0-.289-.445-.21-.612-.137a41.517,41.517,0,0,1-28.956,1.355c-.274-.1-1.063.3-.691.432" transform="translate(-254.904 -407.846)"/><path class="b" d="M272.358,461.164c5.745-1.736,13.3-1.378,17.04,3.91.148.21.993-.073.815-.325-3.919-5.535-11.982-5.762-17.955-3.957-.51.154-.416.528.1.372" transform="translate(-262.372 -431.228)"/><path class="b" d="M323.652,408.124a5.516,5.516,0,0,1,7.5.046c.309.272,1.058-.179.668-.521a6.536,6.536,0,0,0-8.755.046c-.449.386.241.725.586.428" transform="translate(-298.017 -393.628)"/><path class="b" d="M274.2,408.124a5.516,5.516,0,0,0-7.5.046c-.309.272-1.057-.179-.668-.521a6.536,6.536,0,0,1,8.755.046c.449.386-.24.725-.586.428" transform="translate(-258.177 -393.628)"/></svg>